<?xml version="1.0" encoding="UTF-8" standalone="no"?>
<!-- Created with Inkscape (http://www.inkscape.org/) -->

<svg
   version="1.1"
   id="svg2"
   width="205.44"
   height="90.239998"
   viewBox="0 0 205.44 90.239998"
   sodipodi:docname="logo.svg"
   inkscape:version="1.1.2 (0a00cf5339, 2022-02-04)"
   xmlns:inkscape="http://www.inkscape.org/namespaces/inkscape"
   xmlns:sodipodi="http://sodipodi.sourceforge.net/DTD/sodipodi-0.dtd"
   xmlns="http://www.w3.org/2000/svg"
   xmlns:svg="http://www.w3.org/2000/svg">
  <defs
     id="defs6" />
  <sodipodi:namedview
     id="namedview4"
     pagecolor="#ffffff"
     bordercolor="#666666"
     borderopacity="1.0"
     inkscape:pageshadow="2"
     inkscape:pageopacity="0.0"
     inkscape:pagecheckerboard="0"
     showgrid="false"
     inkscape:zoom="4.071784"
     inkscape:cx="97.131871"
     inkscape:cy="38.435241"
     inkscape:window-width="1920"
     inkscape:window-height="1011"
     inkscape:window-x="0"
     inkscape:window-y="0"
     inkscape:window-maximized="1"
     inkscape:current-layer="g8" />
  <g
     inkscape:groupmode="layer"
     inkscape:label="Image"
     id="g8">
    <path
       style="fill:#000000;stroke-width:0.32"
       d="m 18.278644,86.666689 c -1.81716,-0.288544 -3.673118,-1.043436 -5.401173,-2.196876 l -1.04253,-0.695866 -0.486401,1.164122 -0.486401,1.164121 -3.2572849,-0.0911 C 4.4363229,85.922481 4.3415235,85.8982 4.1256822,85.119998 3.75336,83.777614 3.7964512,48.359295 4.1712589,47.658962 4.466184,47.10789 4.8677485,47.039999 7.8323734,47.039999 c 2.2960676,0 3.4056396,0.122621 3.5739576,0.394966 0.134257,0.217229 0.204559,2.573661 0.156227,5.236512 -0.136876,7.541325 0.09009,8.042739 2.807167,6.201642 1.918142,-1.299735 3.564396,-1.730237 6.590275,-1.723383 2.23523,0.0051 2.808443,0.133402 4.518354,1.011616 4.637579,2.381869 6.955425,6.948506 6.942744,13.678646 -0.0075,3.95776 -0.36888,5.828787 -1.630785,8.44225 -2.316207,4.796969 -7.108539,7.242396 -12.511669,6.384441 z m 2.591115,-6.235315 c 3.736609,-1.878358 5.210549,-9.176588 2.801444,-13.871375 -1.479712,-2.883616 -4.286938,-4.255972 -7.143684,-3.492301 -1.839671,0.491785 -3.767928,2.561942 -4.472345,4.801468 -0.573694,1.82392 -0.75751,5.519607 -0.356664,7.170832 0.362316,1.492506 1.593732,3.761271 2.500607,4.60713 1.573446,1.467581 4.602798,1.823734 6.670642,0.784246 z M 42.08,86.686088 c -3.563635,-0.52448 -6.25847,-2.628544 -7.241725,-5.654173 -0.411792,-1.267142 -0.813203,-20.932006 -0.456307,-22.354003 0.184774,-0.736195 0.285203,-0.757913 3.504947,-0.757913 2.285994,0 3.4192,0.125891 3.651376,0.405645 0.212967,0.256608 0.374323,3.813129 0.439181,9.679999 0.11145,10.081475 0.180454,10.488208 2.025555,11.939565 1.992755,1.567504 5.570954,1.094621 7.337991,-0.969763 1.501433,-1.754087 1.777977,-3.732461 1.783881,-12.761658 0.0026,-4.121584 0.115312,-7.667503 0.250256,-7.879823 0.371315,-0.584221 6.770874,-0.630816 7.137571,-0.05197 0.152612,0.240903 0.27968,6.432375 0.282375,13.758826 0.0041,11.028604 -0.07215,13.384761 -0.442871,13.692431 -0.288995,0.239843 -1.508806,0.338842 -3.44,0.279184 L 53.92,85.919998 53.562592,84.814197 c -0.196576,-0.608192 -0.518531,-1.159511 -0.715453,-1.225152 -0.196925,-0.06564 -0.972089,0.375804 -1.722592,0.980992 -2.382675,1.921331 -5.466064,2.642716 -9.044547,2.116051 z m 143.04,-0.149184 c -5.09157,-0.77738 -7.58301,-2.246346 -9.12609,-5.380781 -0.61152,-1.242157 -0.96283,-2.39809 -0.89888,-2.957616 l 0.10497,-0.918509 3.26785,-0.09106 3.26786,-0.09106 0.621,1.211062 c 1.23019,2.399062 2.84008,3.319453 5.83123,3.333757 4.03643,0.0193 6.31429,-2.701053 4.28304,-5.115056 -0.8299,-0.986278 -2.97734,-1.843354 -6.55098,-2.614589 -6.89978,-1.489062 -9.33128,-3.018317 -10.25532,-6.449939 -0.43367,-1.610518 0.0643,-4.386393 1.1035,-6.151827 1.52229,-2.586032 5.86202,-4.336963 10.77305,-4.346557 4.63606,-0.0091 8.03706,1.034896 10.10347,3.101303 1.30208,1.302083 2.33785,3.352153 2.34827,4.647872 0.009,1.098822 -0.58033,1.267728 -3.97988,1.140976 L 193.46833,65.76 192.60059,64.48 c -1.05137,-1.550884 -2.7585,-2.380445 -4.92059,-2.391111 -4.21438,-0.0208 -5.85386,3.349085 -2.46938,5.075719 0.67992,0.34687 3.09768,1.060057 5.3728,1.584863 4.82925,1.113968 6.62728,1.827789 8.29718,3.293984 1.58728,1.393642 2.08095,2.657687 2.07237,5.306266 -0.0185,5.703072 -3.91609,8.819504 -11.83297,9.461305 -0.792,0.06421 -2.592,-0.05915 -4,-0.274122 z M 62.55784,85.7565 c -0.109965,-0.177923 -0.220266,-1.386371 -0.245114,-2.685443 -0.03887,-2.031875 0.06469,-2.519593 0.741047,-3.490044 0.672112,-0.964362 7.946864,-9.27257 11.496006,-13.129136 2.577155,-2.800387 2.385978,-2.918096 -4.851456,-2.987005 -4.416416,-0.04205 -5.853702,-0.15591 -6.059165,-0.48 -0.367116,-0.579075 -0.34167,-4.150384 0.03381,-4.744873 0.25791,-0.408346 1.934732,-0.49377 11.232588,-0.57224 C 87.901018,57.558082 87.36,57.429554 87.36,60.626543 c 0,1.128486 -0.131923,2.385168 -0.293162,2.792624 -0.161238,0.407459 -3.060243,3.836832 -6.44223,7.620831 -6.768816,7.573421 -7.179114,8.095805 -6.909837,8.79753 0.156986,0.409094 1.223255,0.48247 7.011187,0.48247 4.882477,0 6.935376,0.109335 7.210042,0.384 0.221091,0.221091 0.384,1.28 0.384,2.496 0,1.216 -0.162909,2.274909 -0.384,2.496 -0.498877,0.498877 -25.071024,0.557459 -25.37816,0.0605 z M 90.093843,85.68 c -0.06934,-0.22 -0.21647,-1.076192 -0.32696,-1.902649 -0.38856,-2.906356 -0.04197,-3.464855 7.200435,-11.602919 3.691972,-4.14856 6.712682,-7.688508 6.712682,-7.866553 0,-0.69713 -1.85879,-0.947878 -7.026595,-0.947878 -4.615155,0 -5.412698,-0.07236 -5.579168,-0.506173 -0.303187,-0.790093 -0.218525,-4.079856 0.118736,-4.613827 0.258038,-0.408541 1.946768,-0.493683 11.343177,-0.57192 13.05019,-0.108656 12.34385,-0.302922 12.34385,3.394915 0,2.627977 0.35638,2.108912 -7.32036,10.661939 -6.15918,6.862227 -6.59176,7.417081 -6.32487,8.112595 0.15685,0.408726 1.21032,0.48247 6.89233,0.48247 7.89046,0 7.7129,-0.06903 7.7129,2.998858 0,1.123555 -0.16754,2.160678 -0.384,2.377142 -0.56717,0.567171 -25.183251,0.551642 -25.362157,-0.016 z m 27.708987,0.113242 c -0.36064,-0.228474 -0.44485,-3.569175 -0.48101,-19.081965 -0.0317,-13.6071 0.0567,-18.942575 0.32009,-19.302706 0.32167,-0.439908 2.2169,-0.49201 16.32101,-0.448695 9.98345,0.03066 16.33904,-0.07182 16.9774,-0.273757 1.23226,-0.389804 2.43431,-2.541753 2.12691,-3.807651 -0.18084,-0.744713 -3.92183,-10.9557 -7.99574,-21.824264 -0.97014,-2.588188 -1.71437,-4.964188 -1.65386,-5.28 0.0968,-0.504941 0.5427,-0.585106 3.697,-0.664597 3.15546,-0.07952 3.6292,-0.02178 3.93804,0.48 0.1931,0.313717 1.60124,4.314395 3.12921,8.890394 2.35192,7.043612 2.8728,8.32 3.39526,8.32 0.52492,0 1.03488,-1.285817 3.4124,-8.604055 1.53739,-4.732231 2.98768,-8.726025 3.22286,-8.8751 0.7612,-0.482502 6.54081,-0.339199 6.96565,0.172711 0.29776,0.358776 -0.0558,1.612584 -1.69201,6 -1.13763,3.050544 -2.81406,7.562444 -3.7254,10.026444 -6.39044,17.277958 -6.6847,17.966301 -8.37326,19.58639 -2.16117,2.073539 -2.42467,2.103728 -17.72843,2.031248 -11.18651,-0.05298 -13.84803,0.01542 -14.13681,0.363383 -0.4086,0.492339 -0.66741,12.37087 -0.28309,12.992726 0.1313,0.212438 0.35553,0.386253 0.49829,0.386253 0.14276,0 2.28806,-2.052 4.76732,-4.56 l 4.50776,-4.56 3.06712,-0.111344 c 3.56965,-0.129587 4.64046,0.06335 4.64046,0.836099 0,0.30391 -2.016,2.507725 -4.48,4.897363 -2.464,2.389638 -4.48,4.576281 -4.48,4.859206 0,0.282928 2.44272,4.198362 5.42826,8.70097 3.28589,4.955571 5.35623,8.374249 5.24576,8.662131 -0.14766,0.384812 -0.92768,0.475574 -4.0871,0.475574 -4.31128,0 -4.5987,-0.10088 -5.7235,-2.008877 -2.91616,-4.9467 -6.07386,-9.797356 -6.47918,-9.952892 -0.2925,-0.112243 -0.96015,0.247181 -1.67528,0.901872 l -1.18896,1.088486 -0.16,4.677853 c -0.126,3.683885 -0.26199,4.742227 -0.64,4.980806 -0.60111,0.379392 -6.08564,0.400742 -6.67717,0.02598 z M 146.624,85.696002 C 146.33759,85.409593 146.24,81.91453 146.24,71.943378 v -13.36862 l 0.7943,-0.520448 c 1.06093,-0.695146 6.10585,-0.552611 6.57251,0.185693 0.47651,0.753888 0.40888,26.976313 -0.0708,27.455999 -0.52303,0.52303 -6.38897,0.52303 -6.912,0 z m 9.92,0 C 156.25693,85.408929 156.16,81.745627 156.16,71.18332 V 57.054645 l 0.72,-0.993824 c 0.396,-0.546601 1.25353,-1.618835 1.90563,-2.382736 0.65209,-0.763904 1.67409,-2.533977 2.27112,-3.933501 1.07727,-2.525289 1.89553,-3.289903 2.50001,-2.33607 0.4542,0.71672 0.35654,37.830188 -0.10076,38.287484 -0.52303,0.52303 -6.38897,0.52303 -6.912,0 z m 9.91368,0.106416 c -0.59312,-0.376077 -0.68271,-37.945583 -0.0919,-38.53582 0.46812,-0.467667 6.42276,-0.356579 6.91422,0.128989 0.43184,0.426659 0.59121,36.750242 0.16615,37.868239 -0.30362,0.798579 -0.37775,0.81607 -3.43823,0.811277 -1.72036,-0.0026 -3.31796,-0.125402 -3.55024,-0.272685 z M 8.805648,45.679999 c -0.073846,-0.22 -0.1773264,-0.76 -0.2299568,-1.2 -0.089629,-0.749318 -0.2269389,-0.806154 -2.167393,-0.89713 -1.1570044,-0.05425 -2.179167,-0.266176 -2.3151001,-0.48 -0.3152055,-0.495824 -0.3152055,-2.829916 0,-3.32574 0.1359331,-0.213824 1.1580957,-0.425754 2.3151001,-0.48 L 8.48,39.199999 l 0.16,-1.44 0.16,-1.44 h 1.28 1.28 l 0.16,1.44 0.16,1.44 3.922595,0.08987 c 2.336966,0.05354 4.179377,-0.04755 4.557833,-0.250099 0.39722,-0.212586 0.711325,-0.815789 0.838304,-1.609869 0.199825,-1.249638 0.224844,-1.269901 1.56793,-1.269901 1.54716,0 1.754321,0.277488 1.751553,2.346173 -0.003,2.238067 -0.568831,3.700864 -1.697852,4.389277 -0.892816,0.544387 -1.631625,0.622307 -5.910406,0.623353 -3.632123,9.6e-4 -4.921743,0.104093 -5.013273,0.401197 -0.06778,0.22 -0.21,0.796 -0.316053,1.28 -0.165735,0.756371 -0.350726,0.88 -1.316771,0.88 -0.6181704,0 -1.1843659,-0.18 -1.258212,-0.4 z m 24.708016,-2.294448 c -2.545562,-1.046794 -3.932491,-2.185536 -5.369181,-4.408374 -2.17965,-3.372343 -3.079979,-7.687622 -2.523923,-12.097178 0.535988,-4.250412 1.585316,-6.620965 4.053237,-9.156725 3.619349,-3.718838 10.42356,-4.383083 14.362686,-1.402121 2.476189,1.873875 2.731066,1.258958 2.665917,-6.4317993 -0.02208,-2.6053846 0.05336,-4.8883285 0.167622,-5.0732085 0.123616,-0.2000147 1.556256,-0.3361453 3.537604,-0.3361453 2.964627,0 3.366192,0.06789 3.661116,0.6189629 0.522087,0.9755311 0.45144,37.1743512 -0.07395,37.8928732 -0.34415,0.470653 -0.862518,0.540144 -3.44,0.461161 l -3.034787,-0.093 -0.45775,-1.04 c -0.552119,-1.254403 -0.721072,-1.271779 -2.104695,-0.216442 -2.865376,2.185533 -7.880496,2.747348 -11.443891,1.281994 z m 8.945504,-5.32591 c 1.226106,-0.463255 2.582896,-1.799437 3.391155,-3.339642 0.827031,-1.575981 1.148781,-6.701753 0.567613,-9.042638 -0.753962,-3.036893 -2.721008,-4.949737 -5.513942,-5.362006 -3.99616,-0.589878 -6.901802,2.10628 -7.602548,7.054436 -0.853104,6.023991 2.129959,11.030208 6.572583,11.030208 0.926371,0 2.089683,-0.153161 2.585139,-0.340358 z M 62.24,43.85974 c -1.41089,-0.345005 -3.422285,-1.449927 -4.20257,-2.308599 -1.459926,-1.606595 -1.871766,-2.861263 -1.874665,-5.711142 -0.0026,-2.400121 0.101725,-2.897757 0.885741,-4.231495 1.507881,-2.565159 4.257398,-3.810128 10.108684,-4.577164 2.040628,-0.267503 4.269616,-0.636995 4.953306,-0.821094 4.654752,-1.253395 3.062317,-6.695967 -1.956973,-6.688462 -2.768041,0.0041 -4.483849,0.995766 -5.395437,3.118215 l -0.446675,1.04 -2.635705,0.03542 c -3.469405,0.04663 -4.187703,-0.02846 -4.47889,-0.468186 -0.587632,-0.887391 0.962867,-4.251102 2.67079,-5.794106 4.36377,-3.942404 16.471152,-4.081278 20.572746,-0.235973 2.007373,1.881941 2.102925,2.458525 2.131696,12.862843 0.01437,5.192 0.146086,10.16 0.29273,11.04 0.16862,1.011882 0.147206,1.74703 -0.05826,2 -0.2183,0.268774 -1.31526,0.4 -3.34374,0.4 -2.96882,0 -3.033898,-0.01648 -3.926413,-0.993651 l -0.907562,-0.993648 -1.3944,0.806301 c -0.766921,0.443467 -2.176541,1.03461 -3.132483,1.313653 C 68.309946,44.17573 63.996848,44.28934 62.24,43.85974 Z m 9.75249,-5.478525 C 73.914486,37.362137 74.88,35.36959 74.88,32.422204 c 0,-1.198328 -0.139226,-1.775717 -0.457638,-1.897904 -0.607424,-0.23309 -6.713405,0.748159 -7.999578,1.285556 -2.918637,1.219484 -3.667091,4.910415 -1.309053,6.455462 1.831555,1.200083 4.741504,1.24911 6.878759,0.115897 z M 121.12,43.443378 c -2.32798,-0.807632 -5.07868,-3.427651 -6.35343,-6.05158 -1.77494,-3.653511 -2.25928,-8.886883 -1.19988,-12.965049 1.56599,-6.028289 5.4617,-9.497436 11.118,-9.900637 2.86517,-0.204239 5.32834,0.46005 7.30977,1.971361 1.98019,1.510359 2.08554,1.237157 2.08554,-5.408248 0,-4.6508843 0.094,-5.968899 0.44672,-6.2616049 0.29236,-0.2426343 1.59162,-0.339105 3.76,-0.2791821 L 141.6,4.64 l 0.0826,19.004132 c 0.0598,13.770098 -0.0171,19.124177 -0.27919,19.439998 -0.25207,0.303728 -1.16654,0.435869 -3.01638,0.435869 -2.85958,0 -3.66699,-0.170218 -3.66699,-0.773075 0,-0.21153 -0.20283,-0.661991 -0.45074,-1.001024 -0.43657,-0.597047 -0.49778,-0.58264 -1.94741,0.458406 -0.82317,0.591152 -2.15522,1.273021 -2.96012,1.515258 -2.14864,0.646649 -5.94875,0.519305 -8.24173,-0.276186 z m 10.28875,-6.178867 c 3.27433,-2.497456 4.02001,-10.315428 1.36604,-14.322187 -2.03101,-3.066269 -6.57405,-3.633599 -9.37858,-1.171188 -4.01262,3.523127 -3.36478,13.236882 1.05342,15.794882 2.2259,1.28873 5.0337,1.167082 6.95912,-0.301507 z M 85.184,43.135999 C 84.713462,42.665461 84.636022,16.434684 85.10299,15.69656 c 0.336685,-0.532184 3.819936,-0.854806 5.607802,-0.519401 0.877817,0.16468 1.169328,0.400573 1.330752,1.076857 0.376384,1.576862 0.732998,1.744294 1.801043,0.845595 0.532755,-0.448285 1.704118,-1.199127 2.60303,-1.668538 1.463501,-0.764243 1.98568,-0.854396 4.994383,-0.862275 2.91975,-0.0076 3.54868,0.09006 4.8,0.745697 2.11773,1.109595 3.43132,2.508022 4.23548,4.50903 0.67905,1.689679 0.71908,2.289639 0.81919,12.279636 0.0778,7.758608 0.006,10.622537 -0.27389,10.96 -0.50465,0.608057 -6.45725,0.655846 -6.95522,0.05584 -0.20782,-0.25041 -0.37274,-3.885543 -0.43918,-9.68 -0.0988,-8.618587 -0.15308,-9.368016 -0.76254,-10.529681 -1.80623,-3.442808 -7.420751,-3.174102 -9.416805,0.450679 -0.780451,1.417276 -0.794912,1.580347 -0.9164,10.333543 -0.100535,7.243439 -0.209984,8.980089 -0.589895,9.359999 -0.598422,0.598426 -6.172748,0.666452 -6.756742,0.08246 z M 2.7542364,34.693826 C 2.4237143,33.832502 2.5400477,31.827952 2.944,31.423999 c 0.2489579,-0.248958 1.543111,-0.384 3.68,-0.384 2.1757891,0 3.296,-0.119158 3.296,-0.350601 0,-0.192831 -0.3190778,-0.798705 -0.7090614,-1.346386 C 8.7141606,28.645351 8.4694726,27.76833 8.39364,26.413613 8.2506707,23.859531 8.9427027,22.490772 10.867805,21.52 12.193631,20.851424 12.714683,20.8 18.163074,20.8 h 5.867465 l -0.09527,1.999999 -0.09527,2 -5.44,0.187403 c -2.992,0.103071 -5.47039,0.211071 -5.507534,0.24 -1.384598,1.078363 -1.71618,2.619711 -0.902189,4.193795 0.686423,1.327395 1.961207,1.618802 7.081574,1.618802 5.207764,0 5.152496,-0.02817 4.977265,2.536871 L 23.93823,35.199999 H 13.443352 c -9.27476,0 -10.5174608,-0.05885 -10.6891156,-0.506173 z M 13.134166,19.354622 C 9.993119,17.936994 8.3232838,15.380587 8.3301539,12 8.3350435,9.5931732 9.1160291,7.8071886 10.758672,6.4463701 12.111295,5.3258136 14.834596,4.3772153 16.236251,4.5383829 L 17.12,4.6399999 17.28,10.08 l 0.16,5.44 1.067644,-0.05019 c 1.447741,-0.06806 2.539476,-1.163936 2.782738,-2.793297 0.231438,-1.550163 -0.10841,-2.582787 -1.254904,-3.8130002 -1.093956,-1.1738403 -1.127766,-3.7435129 -0.04925,-3.7435129 0.800902,0 3.054147,1.9462227 3.685084,3.1829625 1.022711,2.0046776 0.911113,5.5216226 -0.245459,7.7355556 -1.328948,2.543897 -3.13738,3.564849 -6.565841,3.706751 -1.881578,0.07788 -2.931679,-0.03222 -3.725842,-0.390647 z m 1.517489,-6.986132 c 0.102419,-3.4636576 -0.202317,-3.9690252 -1.811918,-3.0048492 -1.924701,1.1529252 -1.889441,4.5032802 0.0599,5.6917352 0.5612,0.342147 1.164363,0.574983 1.340363,0.517415 0.176,-0.05757 0.361245,-1.499504 0.411655,-3.204301 z"
       id="path1968" />
  </g>
</svg>
